<?xml version="1.0" encoding="UTF-8"?>
<svg width="31px" height="47px" viewBox="0 0 31 47" version="1.1" xmlns="http://www.w3.org/2000/svg" xmlns:xlink="http://www.w3.org/1999/xlink">
    <!-- Generator: Sketch 52.4 (67378) - http://www.bohemiancoding.com/sketch -->
    <title>noun_Flamingo_1370825</title>
    <desc>Created with Sketch.</desc>
    <g id="Page-1" stroke="none" stroke-width="1" fill="none" fill-rule="evenodd">
        <g id="noun_Flamingo_1370825" fill="#000000">
            <g id="Group">
                <path d="M28.279902,10.931962 C28.0215686,10.5898734 27.7480392,10.2626582 27.4745098,9.95031646 C26.5931373,8.93892405 25.5446078,8.10601266 24.6176471,7.13924051 C24.025,6.49968354 23.5843137,5.74113924 23.5539216,4.92310127 C23.5387255,4.56613924 23.5995098,4.1943038 23.7514706,3.82246835 C24.0705882,3.40601266 24.3593137,2.7664557 25.6053922,2.98955696 C26.1372549,3.25727848 26.9730392,4.01582278 28.5230392,4.55126582 C28.5534314,4.68512658 28.4926471,5.30981013 28.9789216,5.65189873 C28.9789216,5.63702532 28.9941176,5.60727848 28.9941176,5.57753165 C28.9941176,5.54778481 29.0093137,5.51803797 29.0093137,5.48829114 C29.0093137,5.4585443 29.0093137,5.44367089 29.0245098,5.41392405 C29.0245098,5.3693038 29.0397059,5.32468354 29.0397059,5.28006329 C29.0397059,5.25031646 29.0397059,5.2056962 29.0397059,5.17594937 C29.0397059,5.13132911 29.0397059,5.10158228 29.0397059,5.05696203 C29.0397059,5.01234177 29.0397059,4.9528481 29.0397059,4.90822785 L29.0397059,4.89335443 C29.0397059,4.89335443 29.0397059,4.87848101 29.0397059,4.87848101 C29.0397059,4.86360759 29.0397059,4.84873418 29.0397059,4.83386076 C29.0397059,4.77436709 29.0245098,4.7 29.0093137,4.64050633 L29.0093137,4.62563291 C29.0093137,4.59588608 28.9941176,4.55126582 28.9789216,4.52151899 L28.9789216,4.50664557 C28.9637255,4.46202532 28.9637255,4.43227848 28.9485294,4.40253165 L28.9333333,4.38765823 C28.9181373,4.35791139 28.9029412,4.31329114 28.8877451,4.2835443 C28.8421569,4.20917722 28.7965686,4.13481013 28.7205882,4.06044304 C28.7053922,4.04556962 28.6901961,4.0306962 28.675,4.01582278 C28.6598039,4.00094937 28.6446078,3.98607595 28.6294118,3.97120253 C28.7357843,3.97120253 28.7509804,3.45063291 28.7509804,3.45063291 C28.7509804,3.45063291 28.6294118,2.63259494 28.4470588,2.49873418 C28.5078431,2.35 28.8877451,2.21613924 29.3436275,2.40949367 L29.3588235,2.40949367 C29.45,2.43924051 29.6019608,2.51360759 29.7387255,2.46898734 C29.6779412,2.35 29.6019608,2.18639241 29.4955882,1.94841772 C29.1916667,1.24936709 28.3406863,-0.342088608 26.6387255,0.0743670886 C25.9245098,0.252848101 24.7848039,0.297468354 23.8578431,1.27911392 C23.4779412,1.54683544 23.1436275,1.85917722 22.870098,2.20126582 C22.8245098,2.27563291 22.7789216,2.36487342 22.7485294,2.45411392 C22.7941176,2.36487342 22.8245098,2.29050633 22.870098,2.20126582 C22.4901961,2.67721519 22.2166667,3.21265823 22.095098,3.86708861 C21.7303922,5.875 23.052451,7.92753165 24.5720588,9.16202532 C24.9215686,9.44462025 25.2710784,9.74208861 25.5901961,10.0693038 C26.3348039,10.7981013 27.0490196,11.6607595 27.3681373,12.6721519 C27.5352941,13.1778481 27.5808824,13.7132911 27.4441176,14.2338608 C27.2921569,14.8287975 26.9426471,15.2303797 26.3955882,15.4832278 C26.4259804,15.4832278 26.4563725,15.4683544 26.4715686,15.4683544 C26.4563725,15.4683544 26.4259804,15.4832278 26.3955882,15.4832278 C26.3044118,15.5278481 26.2132353,15.5575949 26.1220588,15.6022152 C25.8029412,15.7063291 25.4534314,15.7360759 25.1495098,15.6170886 C24.7696078,15.4683544 24.4808824,15.1262658 24.3289216,14.7544304 C24.1009804,14.2041139 24.0857843,13.5943038 24.0401961,13.0142405 C23.9338235,11.8243671 23.7362745,10.6047468 23.2044118,9.53386076 C22.9004902,8.90917722 22.4446078,8.34398734 21.897549,7.89778481 C19.6181373,6.05348101 16.275,6.03860759 13.5397059,6.66329114 C12.5063725,7.03512658 11.4730392,7.37721519 10.5004902,7.86803797 C9.11764706,8.53734177 7.97794118,9.44462025 6.975,10.5601266 C6.12401961,11.5120253 5.0754902,12.285443 3.99656863,12.9993671 C2.94803922,13.6984177 1.85392157,14.3379747 0.531862745,14.1594937 C0.471078431,14.1446203 0.364705882,14.1446203 0.273529412,14.1594937 C0.106372549,14.1743671 -0.0303921569,14.2487342 0.121568627,14.4420886 C0.182352941,14.5164557 0.273529412,14.5610759 0.364705882,14.6056962 C1.06372549,14.8882911 1.77794118,14.9031646 2.50735294,14.7990506 C3.47990196,14.7841772 4.84754902,14.7098101 6.47352941,15.7212025 C7.24852941,16.0632911 7.41568627,16.4351266 8.40343137,16.2417722 C8.96568627,16.5094937 10.652451,17.0746835 12.1568627,16.9556962 C12.1720588,16.9556962 12.1720588,16.9556962 12.1872549,16.9556962 C12.1872549,16.9556962 12.1872549,16.9556962 12.1872549,16.9556962 C12.2480392,16.9705696 12.3544118,16.9705696 12.5215686,16.9705696 C12.5215686,16.9705696 12.5215686,16.9705696 12.5215686,16.9705696 C12.5671569,16.9705696 12.6127451,16.9705696 12.6583333,16.985443 C12.6583333,16.985443 12.6583333,16.985443 12.6583333,16.985443 C13.4181373,17.0449367 13.8892157,17.2085443 14.3602941,18.3240506 C14.4970588,18.8148734 14.5882353,19.2462025 14.6338235,19.8560127 C14.6338235,19.9006329 14.6338235,19.9601266 14.6490196,20.0047468 C14.6794118,20.5699367 14.6490196,21.2987342 14.5578431,22.3547468 C14.345098,24.7047468 14.2539216,26.2664557 13.752451,29.1370253 C13.5093137,29.8360759 13.2813725,30.3417722 13.752451,30.9664557 C14.147549,31.8737342 14.5426471,32.543038 16.0166667,39.2509494 C16.1382353,40.5151899 16.2901961,41.3481013 16.3661765,41.6901899 C16.3965686,42.2553797 16.4877451,43.9509494 16.3965686,44.3525316 C16.3661765,44.7838608 16.3661765,44.8731013 16.3661765,44.8731013 C16.3661765,44.8731013 16.0318627,45.2746835 16.0166667,45.9291139 C16.0014706,46.0183544 16.0926471,46.1224684 16.1382353,46.1522152 C16.1838235,46.1224684 16.275,45.9886076 16.3357843,45.8696203 C16.3357843,45.8844937 16.3813725,46.2712025 16.4269608,46.4496835 C16.5029412,46.5537975 16.6852941,46.7917722 17.2931373,46.821519 C17.5970588,46.8363924 17.9161765,46.8363924 18.2960784,46.821519 C18.6455882,46.821519 18.9191176,46.8661392 19.1470588,46.9256329 C19.6181373,46.9256329 20.4235294,46.9702532 20.727451,46.8810127 C20.8034314,46.8661392 21.0161765,46.8066456 21.2137255,46.9702532 C21.2441176,46.9702532 21.320098,46.9553797 21.2745098,46.8810127 C21.2745098,46.8661392 21.2745098,46.7174051 21.1529412,46.6579114 C21.0769608,46.6132911 20.7730392,46.4050633 19.9828431,46.2265823 C19.9980392,46.2117089 20.8794118,46.3753165 21.320098,46.643038 C21.4416667,46.6579114 21.6088235,46.643038 21.6696078,46.5835443 C21.8367647,46.5537975 22.0647059,46.5537975 22.2014706,46.5984177 C22.2166667,46.5835443 22.277451,46.5091772 22.095098,46.3306962 C21.897549,46.2265823 21.3808824,45.9291139 20.9401961,46.0332278 C20.5754902,45.9886076 18.1593137,45.8696203 17.8705882,45.3044304 C17.6122549,44.9772152 17.4754902,44.5161392 17.4147059,44.1889241 C17.3539216,43.9360759 17.1867647,42.5974684 17.0955882,41.8537975 L17.1107843,41.8537975 C17.05,41.3183544 16.9892157,40.7829114 16.9284314,40.2474684 C16.7764706,38.8791139 16.6245098,37.5107595 16.472549,36.1424051 C16.3205882,34.8335443 16.1230392,33.5246835 16.0622549,32.2009494 C16.0318627,31.6655063 16.0318627,31.1300633 16.077451,30.5946203 C16.1078431,30.1632911 16.2446078,29.7617089 16.1230392,29.3303797 C15.7583333,28.7800633 15.2568627,28.4825949 15.2720588,26.9803797 C15.2720588,26.8762658 15.2720588,26.7721519 15.2872549,26.6531646 C15.3480392,25.1806962 15.4696078,23.7082278 15.6063725,22.2506329 C15.6823529,21.4623418 15.7887255,20.6889241 15.9406863,19.9155063 C15.9558824,19.8708861 15.9558824,19.8113924 15.9710784,19.7667722 C16.0926471,19.156962 16.2598039,18.5620253 16.4573529,17.981962 C16.6093137,17.5803797 16.7764706,17.1639241 17.0651961,16.8515823 C17.1259804,16.7920886 17.1867647,16.7325949 17.247549,16.6879747 C17.247549,16.6879747 17.247549,16.6879747 17.247549,16.6879747 C17.247549,16.6879747 17.247549,16.6879747 17.247549,16.6879747 C17.3539216,16.6136076 17.4602941,16.5392405 17.5666667,16.4946203 L17.5970588,16.4797468 C17.6730392,16.45 17.7338235,16.4202532 17.8098039,16.4053797 C18.2352941,16.271519 18.7367647,16.2417722 19.177451,16.2120253 C20.1044118,16.1376582 20.8186275,16.3458861 21.5632353,16.8813291 C23.3259804,18.160443 25.5142157,18.9041139 27.504902,17.5952532 C28.0215686,17.2234177 28.4926471,16.8962025 28.8421569,16.3607595 C29.1612745,15.8550633 29.3892157,15.275 29.4803922,14.6800633 C29.4803922,14.6503165 29.4803922,14.635443 29.4955882,14.6056962 C29.6171569,13.7281646 29.4651961,12.8208861 29.070098,12.0325949 C28.8117647,11.6458861 28.5534314,11.2889241 28.279902,10.931962 Z M22.6269608,6.09810127 C22.5205882,5.86012658 22.4294118,5.59240506 22.3686275,5.33955696 C22.4294118,5.60727848 22.5205882,5.86012658 22.6269608,6.09810127 C23.0068627,6.93101266 23.629902,7.60031646 24.3137255,8.19525316 C23.629902,7.60031646 22.9916667,6.93101266 22.6269608,6.09810127 Z M16.5181373,10.9170886 C16.6245098,10.2924051 16.9588235,9.68259494 17.4906863,9.32563291 L17.7034314,9.22151899 C17.1715686,9.77183544 16.852451,10.5006329 16.8068627,11.2591772 C16.7612745,12.0177215 16.9892157,12.7762658 17.445098,13.3860759 C17.1259804,13.3860759 16.8980392,13.0737342 16.7764706,12.7762658 C16.5333333,12.1962025 16.4117647,11.5417722 16.5181373,10.9170886 Z M6.51911765,14.6949367 C7.93235294,13.9512658 10.3941176,14.3677215 10.3941176,14.3677215 C8.38823529,14.1743671 6.85343137,14.5759494 6.51911765,14.6949367 Z M7.06617647,13.3265823 C9.17843137,10.3221519 13.1142157,8.58196203 13.3573529,8.4778481 C8.7377451,11.0955696 7.14215686,13.2522152 7.06617647,13.3265823 Z M12.6583333,17.0003165 C12.6735294,17.0003165 12.7039216,17.0003165 12.7191176,16.985443 C12.7191176,16.985443 12.7191176,16.985443 12.7191176,16.985443 C12.7039216,17.0003165 12.6735294,17.0003165 12.6583333,17.0003165 Z M21.8519608,12.5382911 C21.3352941,13.4009494 20.5602941,14.3231013 19.6637255,14.8287975 C19.2990196,14.9031646 18.979902,15.0518987 18.7063725,15.2303797 C17.3235294,15.631962 15.3784314,15.6617089 12.6431373,14.7693038 C13.6612745,15.0816456 19.1470588,16.5392405 21.8519608,12.5085443 C21.8519608,12.5085443 21.8519608,12.5234177 21.8519608,12.5382911 Z M26.745098,15.3642405 C26.8362745,15.3344937 26.9426471,15.2898734 27.0338235,15.2303797 C26.9426471,15.2898734 26.8514706,15.3344937 26.745098,15.3642405 Z" id="Shape" fill-rule="nonzero"></path>
                <path d="M13.3269608,20.4063291 C13.372549,20.3765823 13.4181373,20.3468354 13.4941176,20.3022152 C13.4333333,20.331962 13.372549,20.3617089 13.3269608,20.4063291 Z" id="Path"></path>
                <path d="M30.9240196,5.63702532 C30.9240196,5.63702532 30.9240196,5.6221519 30.9240196,5.6221519 C30.9240196,5.60727848 30.9240196,5.57753165 30.9240196,5.56265823 C30.9088235,5.42879747 30.8784314,5.29493671 30.8328431,5.16107595 C30.8176471,5.13132911 30.8176471,5.10158228 30.802451,5.07183544 C30.7872549,5.02721519 30.7568627,4.96772152 30.7416667,4.92310127 C30.7416667,4.92310127 30.7416667,4.92310127 30.7416667,4.90822785 C30.7264706,4.89335443 30.7264706,4.87848101 30.7112745,4.84873418 C30.7112745,4.83386076 30.6960784,4.83386076 30.6960784,4.81898734 C30.6656863,4.77436709 30.6352941,4.71487342 30.604902,4.67025316 C30.4985294,4.50664557 30.3617647,4.37278481 30.1946078,4.25379747 C30.1794118,4.23892405 30.1490196,4.1943038 30.1034314,4.16455696 C30.1034314,4.16455696 30.1034314,4.16455696 30.1034314,4.16455696 C30.0730392,4.13481013 30.0426471,4.11993671 30.0122549,4.07531646 C29.8602941,3.92658228 29.6323529,3.73322785 29.4803922,3.61424051 C29.3740196,3.525 29.2828431,3.46550633 29.252451,3.48037975 C29.252451,3.48037975 29.252451,3.48037975 29.252451,3.48037975 C29.2828431,3.62911392 29.2828431,3.7778481 29.2980392,3.92658228 C29.2980392,3.95632911 29.2980392,3.97120253 29.2980392,3.98607595 C29.3132353,4.55126582 29.2220588,5.01234177 29.1308824,5.32468354 C29.0852941,5.4585443 29.054902,5.56265823 29.0093137,5.63702532 L29.0245098,5.65189873 C29.0245098,5.66677215 29.0245098,5.68164557 29.0245098,5.69651899 L29.0245098,5.75601266 C29.0245098,5.875 29.0397059,6.09810127 29.054902,6.32120253 C29.070098,6.6335443 29.1156863,6.97563291 29.1612745,7.13924051 C29.2068627,7.48132911 28.9333333,7.82341772 29.2980392,8.35886076 L29.3588235,8.35886076 C29.4348039,8.34398734 29.4955882,8.29936709 29.5411765,8.25474684 C29.6627451,8.16550633 29.7691176,8.03164557 29.8602941,7.91265823 C30.0426471,7.68955696 30.1946078,7.43670886 30.3313725,7.18386076 C30.4833333,6.91613924 30.6504902,6.67816456 30.802451,6.42531646 C30.8784314,6.30632911 30.9240196,6.15759494 30.9392157,6.02373418 C30.9392157,5.99398734 30.9392157,5.94936709 30.9544118,5.91962025 C30.9392157,5.83037975 30.9392157,5.72626582 30.9240196,5.63702532 Z" id="Path"></path>
            </g>
        </g>
    </g>
</svg>
